<mxfile host="Electron" agent="Mozilla/5.0 (Windows NT 10.0; Win64; x64) AppleWebKit/537.36 (KHTML, like Gecko) draw.io/26.2.15 Chrome/134.0.6998.205 Electron/35.2.1 Safari/537.36" version="26.2.15">
  <diagram name="Page-1" id="JC-Q8mPGUSaF0FMfF_sF">
    <mxGraphModel dx="872" dy="547" grid="1" gridSize="10" guides="1" tooltips="1" connect="1" arrows="1" fold="1" page="1" pageScale="1" pageWidth="850" pageHeight="1100" math="0" shadow="0">
      <root>
        <mxCell id="0" />
        <mxCell id="1" parent="0" />
        <mxCell id="JRX78ABVr62BRB4ioEHI-1" value="" style="rounded=0;whiteSpace=wrap;html=1;fillColor=none;fontColor=#333333;strokeColor=#ACACAC;dashed=1;" vertex="1" parent="1">
          <mxGeometry x="60" y="150" width="120" height="470" as="geometry" />
        </mxCell>
        <mxCell id="JRX78ABVr62BRB4ioEHI-2" value="High Level Architecture" style="text;html=1;align=center;verticalAlign=middle;whiteSpace=wrap;rounded=0;fontSize=22;fontStyle=1" vertex="1" parent="1">
          <mxGeometry x="10" y="10" width="280" height="30" as="geometry" />
        </mxCell>
        <mxCell id="JRX78ABVr62BRB4ioEHI-4" value="" style="rounded=0;whiteSpace=wrap;html=1;fillColor=none;fontColor=#333333;strokeColor=light-dark(#949494, #595959);dashed=1;" vertex="1" parent="1">
          <mxGeometry x="220" y="150" width="430" height="470" as="geometry" />
        </mxCell>
        <mxCell id="JRX78ABVr62BRB4ioEHI-5" value="" style="rounded=0;whiteSpace=wrap;html=1;fillColor=none;fontColor=#333333;strokeColor=#ACACAC;dashed=1;" vertex="1" parent="1">
          <mxGeometry x="690" y="150" width="120" height="470" as="geometry" />
        </mxCell>
        <mxCell id="JRX78ABVr62BRB4ioEHI-6" value="Source" style="text;html=1;align=center;verticalAlign=middle;whiteSpace=wrap;rounded=0;" vertex="1" parent="1">
          <mxGeometry x="90" y="130" width="60" height="30" as="geometry" />
        </mxCell>
        <mxCell id="JRX78ABVr62BRB4ioEHI-8" value="Data Warehouse" style="text;html=1;align=center;verticalAlign=middle;whiteSpace=wrap;rounded=0;" vertex="1" parent="1">
          <mxGeometry x="360" y="130" width="130" height="30" as="geometry" />
        </mxCell>
        <mxCell id="JRX78ABVr62BRB4ioEHI-9" value="Consume" style="text;html=1;align=center;verticalAlign=middle;whiteSpace=wrap;rounded=0;" vertex="1" parent="1">
          <mxGeometry x="680" y="130" width="130" height="30" as="geometry" />
        </mxCell>
        <mxCell id="JRX78ABVr62BRB4ioEHI-13" value="&lt;b&gt;Bronze Level&lt;/b&gt;" style="rounded=0;whiteSpace=wrap;html=1;fillColor=#ffe6cc;strokeColor=#d79b00;" vertex="1" parent="1">
          <mxGeometry x="230" y="160" width="120" height="30" as="geometry" />
        </mxCell>
        <mxCell id="JRX78ABVr62BRB4ioEHI-14" value="" style="rounded=0;whiteSpace=wrap;html=1;fillColor=none;strokeColor=#d79b00;" vertex="1" parent="1">
          <mxGeometry x="230" y="200" width="120" height="400" as="geometry" />
        </mxCell>
        <mxCell id="JRX78ABVr62BRB4ioEHI-15" value="&lt;b&gt;Silver Level&lt;/b&gt;" style="rounded=0;whiteSpace=wrap;html=1;fillColor=#f5f5f5;fontColor=#333333;strokeColor=#666666;" vertex="1" parent="1">
          <mxGeometry x="375" y="160" width="120" height="30" as="geometry" />
        </mxCell>
        <mxCell id="JRX78ABVr62BRB4ioEHI-16" value="&lt;b&gt;Gold Level&lt;/b&gt;" style="rounded=0;whiteSpace=wrap;html=1;fillColor=#fff2cc;strokeColor=#d6b656;" vertex="1" parent="1">
          <mxGeometry x="520" y="160" width="120" height="30" as="geometry" />
        </mxCell>
        <mxCell id="JRX78ABVr62BRB4ioEHI-17" value="" style="rounded=0;whiteSpace=wrap;html=1;fillColor=none;fontColor=#333333;strokeColor=#666666;" vertex="1" parent="1">
          <mxGeometry x="380" y="200" width="120" height="400" as="geometry" />
        </mxCell>
        <mxCell id="JRX78ABVr62BRB4ioEHI-18" value="" style="rounded=0;whiteSpace=wrap;html=1;fillColor=none;strokeColor=#d6b656;" vertex="1" parent="1">
          <mxGeometry x="520" y="200" width="120" height="400" as="geometry" />
        </mxCell>
        <mxCell id="JRX78ABVr62BRB4ioEHI-19" value="" style="image;aspect=fixed;html=1;points=[];align=center;fontSize=12;image=img/lib/azure2/general/Folder_Blank.svg;" vertex="1" parent="1">
          <mxGeometry x="101.51" y="200" width="36.97" height="30" as="geometry" />
        </mxCell>
        <mxCell id="JRX78ABVr62BRB4ioEHI-20" value="" style="image;aspect=fixed;html=1;points=[];align=center;fontSize=12;image=img/lib/azure2/general/File.svg;" vertex="1" parent="1">
          <mxGeometry x="133.77" y="210" width="16.23" height="20" as="geometry" />
        </mxCell>
        <mxCell id="JRX78ABVr62BRB4ioEHI-22" value="" style="image;aspect=fixed;html=1;points=[];align=center;fontSize=12;image=img/lib/azure2/general/Folder_Blank.svg;" vertex="1" parent="1">
          <mxGeometry x="101.51" y="275" width="36.97" height="30" as="geometry" />
        </mxCell>
        <mxCell id="JRX78ABVr62BRB4ioEHI-23" value="" style="image;aspect=fixed;html=1;points=[];align=center;fontSize=12;image=img/lib/azure2/general/File.svg;" vertex="1" parent="1">
          <mxGeometry x="130" y="285" width="16.23" height="20" as="geometry" />
        </mxCell>
        <mxCell id="JRX78ABVr62BRB4ioEHI-24" value="" style="shape=singleArrow;whiteSpace=wrap;html=1;" vertex="1" parent="1">
          <mxGeometry x="180" y="327.5" width="40" height="30" as="geometry" />
        </mxCell>
        <mxCell id="JRX78ABVr62BRB4ioEHI-25" value="" style="shape=singleArrow;whiteSpace=wrap;html=1;arrowWidth=0.3333333333333333;arrowSize=0.4;" vertex="1" parent="1">
          <mxGeometry x="340" y="270" width="50" height="20" as="geometry" />
        </mxCell>
        <mxCell id="JRX78ABVr62BRB4ioEHI-28" value="" style="shape=singleArrow;whiteSpace=wrap;html=1;" vertex="1" parent="1">
          <mxGeometry x="490" y="270" width="40" height="30" as="geometry" />
        </mxCell>
        <mxCell id="JRX78ABVr62BRB4ioEHI-33" value="" style="shape=singleArrow;whiteSpace=wrap;html=1;" vertex="1" parent="1">
          <mxGeometry x="640" y="260" width="50" height="30" as="geometry" />
        </mxCell>
        <mxCell id="JRX78ABVr62BRB4ioEHI-34" value="&lt;font style=&quot;font-size: 9px;&quot;&gt;CRM&lt;/font&gt;" style="text;html=1;align=center;verticalAlign=middle;whiteSpace=wrap;rounded=0;" vertex="1" parent="1">
          <mxGeometry x="89.99999999999999" y="220" width="60" height="30" as="geometry" />
        </mxCell>
        <mxCell id="JRX78ABVr62BRB4ioEHI-35" value="&lt;font style=&quot;font-size: 10px;&quot;&gt;ERP&lt;/font&gt;" style="text;html=1;align=center;verticalAlign=middle;whiteSpace=wrap;rounded=0;" vertex="1" parent="1">
          <mxGeometry x="90.00000000000001" y="300" width="60" height="30" as="geometry" />
        </mxCell>
        <mxCell id="JRX78ABVr62BRB4ioEHI-36" value="" style="endArrow=none;dashed=1;html=1;rounded=0;" edge="1" parent="1">
          <mxGeometry width="50" height="50" relative="1" as="geometry">
            <mxPoint x="83.44" y="330" as="sourcePoint" />
            <mxPoint x="156.56" y="330" as="targetPoint" />
            <Array as="points">
              <mxPoint x="83.44" y="330" />
            </Array>
          </mxGeometry>
        </mxCell>
        <mxCell id="JRX78ABVr62BRB4ioEHI-39" value="&lt;font style=&quot;font-size: 9px;&quot;&gt;&lt;b&gt;Object Type:&lt;/b&gt;&amp;nbsp;CSV File&lt;/font&gt;&lt;div&gt;&lt;font size=&quot;1&quot;&gt;&lt;br&gt;&lt;/font&gt;&lt;div&gt;&lt;font style=&quot;font-size: 9px;&quot;&gt;&lt;b&gt;Interface:&amp;nbsp;&lt;/b&gt;File in Folder&lt;/font&gt;&lt;/div&gt;&lt;/div&gt;" style="text;html=1;align=center;verticalAlign=middle;whiteSpace=wrap;rounded=0;perimeterSpacing=0;" vertex="1" parent="1">
          <mxGeometry x="70" y="340" width="100" height="50" as="geometry" />
        </mxCell>
        <mxCell id="JRX78ABVr62BRB4ioEHI-40" value="" style="shape=datastore;whiteSpace=wrap;html=1;fillColor=#ffe6cc;strokeColor=#d79b00;" vertex="1" parent="1">
          <mxGeometry x="275" y="240" width="30" height="45" as="geometry" />
        </mxCell>
        <mxCell id="JRX78ABVr62BRB4ioEHI-43" value="" style="shape=datastore;whiteSpace=wrap;html=1;fillColor=#f5f5f5;fontColor=#333333;strokeColor=#666666;" vertex="1" parent="1">
          <mxGeometry x="425" y="240" width="30" height="45" as="geometry" />
        </mxCell>
        <mxCell id="JRX78ABVr62BRB4ioEHI-44" value="" style="shape=datastore;whiteSpace=wrap;html=1;fillColor=#fff2cc;strokeColor=#d6b656;" vertex="1" parent="1">
          <mxGeometry x="565" y="240" width="30" height="45" as="geometry" />
        </mxCell>
        <mxCell id="JRX78ABVr62BRB4ioEHI-45" value="&lt;font style=&quot;font-size: 9px;&quot;&gt;Raw data&lt;/font&gt;" style="text;html=1;align=center;verticalAlign=middle;whiteSpace=wrap;rounded=0;" vertex="1" parent="1">
          <mxGeometry x="260" y="280" width="60" height="30" as="geometry" />
        </mxCell>
        <mxCell id="JRX78ABVr62BRB4ioEHI-46" value="&lt;font style=&quot;font-size: 9px;&quot;&gt;Cleaned Standardized&amp;nbsp; data&lt;/font&gt;" style="text;html=1;align=center;verticalAlign=middle;whiteSpace=wrap;rounded=0;" vertex="1" parent="1">
          <mxGeometry x="400" y="285" width="80" height="30" as="geometry" />
        </mxCell>
        <mxCell id="JRX78ABVr62BRB4ioEHI-47" value="&lt;font style=&quot;font-size: 10px;&quot;&gt;business ready data&lt;/font&gt;" style="text;html=1;align=center;verticalAlign=middle;whiteSpace=wrap;rounded=0;" vertex="1" parent="1">
          <mxGeometry x="550" y="290" width="60" height="30" as="geometry" />
        </mxCell>
        <mxCell id="JRX78ABVr62BRB4ioEHI-49" value="" style="endArrow=none;dashed=1;html=1;rounded=0;" edge="1" parent="1">
          <mxGeometry width="50" height="50" relative="1" as="geometry">
            <mxPoint x="406.88" y="329" as="sourcePoint" />
            <mxPoint x="480" y="329" as="targetPoint" />
            <Array as="points">
              <mxPoint x="406.88" y="329" />
              <mxPoint x="463.44" y="329" />
            </Array>
          </mxGeometry>
        </mxCell>
        <mxCell id="JRX78ABVr62BRB4ioEHI-50" value="" style="endArrow=none;dashed=1;html=1;rounded=0;" edge="1" parent="1">
          <mxGeometry width="50" height="50" relative="1" as="geometry">
            <mxPoint x="543.44" y="329" as="sourcePoint" />
            <mxPoint x="616.56" y="329" as="targetPoint" />
            <Array as="points">
              <mxPoint x="543.44" y="329" />
              <mxPoint x="600" y="329" />
            </Array>
          </mxGeometry>
        </mxCell>
        <mxCell id="JRX78ABVr62BRB4ioEHI-51" value="" style="endArrow=none;dashed=1;html=1;rounded=0;" edge="1" parent="1">
          <mxGeometry width="50" height="50" relative="1" as="geometry">
            <mxPoint x="253.44" y="330" as="sourcePoint" />
            <mxPoint x="326.56" y="330" as="targetPoint" />
            <Array as="points">
              <mxPoint x="253.44" y="330" />
            </Array>
          </mxGeometry>
        </mxCell>
        <mxCell id="JRX78ABVr62BRB4ioEHI-52" value="&lt;font style=&quot;font-size: 10px;&quot;&gt;&lt;b&gt;Object type&lt;/b&gt;: Table&lt;/font&gt;&lt;div&gt;&lt;span style=&quot;background-color: transparent; color: light-dark(rgb(0, 0, 0), rgb(255, 255, 255));&quot;&gt;&lt;font style=&quot;font-size: 10px;&quot;&gt;&lt;b&gt;Load:&lt;/b&gt;&lt;/font&gt;&lt;/span&gt;&lt;div&gt;&lt;font style=&quot;font-size: 10px;&quot;&gt;Batch Processing&lt;/font&gt;&lt;/div&gt;&lt;/div&gt;&lt;div&gt;&lt;font style=&quot;font-size: 10px;&quot;&gt;Full load&amp;nbsp;&lt;/font&gt;&lt;/div&gt;&lt;div&gt;&lt;font style=&quot;font-size: 10px;&quot;&gt;trunc &amp;amp; insert&lt;/font&gt;&lt;/div&gt;&lt;div&gt;&lt;font style=&quot;font-size: 10px;&quot;&gt;No Transformation&lt;/font&gt;&lt;/div&gt;&lt;div&gt;&lt;font style=&quot;font-size: 10px;&quot;&gt;&lt;b&gt;Data Model&lt;/b&gt;&amp;nbsp;- None&lt;/font&gt;&lt;/div&gt;" style="text;html=1;align=center;verticalAlign=middle;whiteSpace=wrap;rounded=0;" vertex="1" parent="1">
          <mxGeometry x="230" y="340" width="120" height="200" as="geometry" />
        </mxCell>
        <mxCell id="JRX78ABVr62BRB4ioEHI-53" value="&lt;font style=&quot;font-size: 10px;&quot;&gt;&lt;b&gt;Object type:&lt;/b&gt; Table&lt;/font&gt;&lt;div&gt;&lt;span style=&quot;background-color: transparent; color: light-dark(rgb(0, 0, 0), rgb(255, 255, 255));&quot;&gt;&lt;font style=&quot;font-size: 10px;&quot;&gt;&lt;b&gt;Load:&lt;/b&gt;&lt;/font&gt;&lt;/span&gt;&lt;div&gt;&lt;font style=&quot;font-size: 10px;&quot;&gt;Batch Processing&lt;/font&gt;&lt;/div&gt;&lt;/div&gt;&lt;div&gt;&lt;font style=&quot;font-size: 10px;&quot;&gt;Full load&amp;nbsp;&lt;/font&gt;&lt;/div&gt;&lt;div&gt;&lt;font style=&quot;font-size: 10px;&quot;&gt;trunc &amp;amp; insert&lt;/font&gt;&lt;/div&gt;&lt;div&gt;&lt;br&gt;&lt;/div&gt;&lt;div&gt;&lt;b style=&quot;font-size: 10px; background-color: transparent; color: light-dark(rgb(0, 0, 0), rgb(255, 255, 255));&quot;&gt;Transformation:&lt;/b&gt;&lt;/div&gt;&lt;div&gt;&lt;font style=&quot;font-size: 10px;&quot;&gt;Data cleaning&lt;/font&gt;&lt;/div&gt;&lt;div&gt;&lt;font style=&quot;font-size: 10px;&quot;&gt;data standardisation&lt;/font&gt;&lt;/div&gt;&lt;div&gt;&lt;font style=&quot;font-size: 10px;&quot;&gt;data normalization&lt;/font&gt;&lt;/div&gt;&lt;div&gt;&lt;font style=&quot;font-size: 10px;&quot;&gt;derived colums&lt;/font&gt;&lt;/div&gt;&lt;div&gt;&lt;font style=&quot;font-size: 10px;&quot;&gt;data enrichment&lt;/font&gt;&lt;/div&gt;&lt;div&gt;&lt;font style=&quot;font-size: 10px;&quot;&gt;&lt;b&gt;Data Model:&lt;/b&gt; None&lt;/font&gt;&lt;/div&gt;" style="text;html=1;align=center;verticalAlign=middle;whiteSpace=wrap;rounded=0;" vertex="1" parent="1">
          <mxGeometry x="380" y="330" width="120" height="240" as="geometry" />
        </mxCell>
        <mxCell id="JRX78ABVr62BRB4ioEHI-54" value="&lt;font style=&quot;font-size: 10px;&quot;&gt;&lt;b&gt;Object type:&lt;/b&gt;&amp;nbsp;View&lt;/font&gt;&lt;div&gt;&lt;span style=&quot;background-color: transparent; color: light-dark(rgb(0, 0, 0), rgb(255, 255, 255));&quot;&gt;&lt;font style=&quot;font-size: 10px;&quot;&gt;&lt;b&gt;Load:&lt;/b&gt;&lt;/font&gt;&lt;/span&gt;&lt;div&gt;&lt;span style=&quot;font-size: 10px;&quot;&gt;No load&lt;/span&gt;&lt;/div&gt;&lt;/div&gt;&lt;div&gt;&lt;b style=&quot;background-color: transparent; color: light-dark(rgb(0, 0, 0), rgb(255, 255, 255)); font-size: 10px;&quot;&gt;&lt;br&gt;&lt;/b&gt;&lt;/div&gt;&lt;div&gt;&lt;b style=&quot;background-color: transparent; color: light-dark(rgb(0, 0, 0), rgb(255, 255, 255)); font-size: 10px;&quot;&gt;Transformation:&lt;/b&gt;&lt;/div&gt;&lt;div&gt;&lt;span style=&quot;font-size: 10px; background-color: transparent; color: light-dark(rgb(0, 0, 0), rgb(255, 255, 255));&quot;&gt;aggregation&lt;/span&gt;&lt;/div&gt;&lt;div&gt;&lt;span style=&quot;font-size: 10px;&quot;&gt;Data integration&lt;/span&gt;&lt;/div&gt;&lt;div&gt;&lt;span style=&quot;font-size: 10px;&quot;&gt;business logics&lt;/span&gt;&lt;/div&gt;&lt;div&gt;&lt;font style=&quot;font-size: 10px;&quot;&gt;&lt;b&gt;Data Model:&lt;/b&gt;&amp;nbsp;&lt;/font&gt;&lt;/div&gt;&lt;div&gt;&lt;font style=&quot;font-size: 10px;&quot;&gt;Star schema&lt;/font&gt;&lt;/div&gt;&lt;div&gt;&lt;font style=&quot;font-size: 10px;&quot;&gt;Flat table&lt;/font&gt;&lt;/div&gt;&lt;div&gt;&lt;font style=&quot;font-size: 10px;&quot;&gt;Aggregated table&lt;/font&gt;&lt;/div&gt;" style="text;html=1;align=center;verticalAlign=middle;whiteSpace=wrap;rounded=0;" vertex="1" parent="1">
          <mxGeometry x="520" y="340" width="120" height="240" as="geometry" />
        </mxCell>
        <mxCell id="JRX78ABVr62BRB4ioEHI-55" value="" style="image;aspect=fixed;html=1;points=[];align=center;fontSize=12;image=img/lib/azure2/analytics/Power_BI_Embedded.svg;" vertex="1" parent="1">
          <mxGeometry x="714.37" y="200" width="71.25" height="95" as="geometry" />
        </mxCell>
        <mxCell id="JRX78ABVr62BRB4ioEHI-56" value="" style="shadow=0;dashed=0;html=1;strokeColor=none;fillColor=#4495D1;labelPosition=center;verticalLabelPosition=bottom;verticalAlign=top;align=center;outlineConnect=0;shape=mxgraph.veeam.magnifying_glass;pointerEvents=1;" vertex="1" parent="1">
          <mxGeometry x="730.4200000000001" y="340" width="55.2" height="54.4" as="geometry" />
        </mxCell>
      </root>
    </mxGraphModel>
  </diagram>
</mxfile>
